<?xml version="1.0" encoding="utf-8"?>
<!-- Generator: Adobe Illustrator 19.0.0, SVG Export Plug-In . SVG Version: 6.00 Build 0)  -->
<svg version="1.1" id="Layer_1" xmlns="http://www.w3.org/2000/svg" xmlns:xlink="http://www.w3.org/1999/xlink" x="0px" y="0px"
	 viewBox="0 0 792 612" style="enable-background:new 0 0 792 612;" xml:space="preserve">
<style type="text/css">
	.st0{fill:#EFEFEF;}
	.st1{fill:#DCDBDB;}
	.st2{font-family:'Helvetica-Bold';}
	.st3{font-size:12.6656px;}
	.st4{font-size:12px;}
	.st5{font-family:'Helvetica';}
	.st6{letter-spacing:-1;}
	.st7{letter-spacing:32;}
	.st8{fill:#FFFFFF;stroke:#000000;stroke-miterlimit:10;}
	.st9{font-size:16.8623px;}
	.st10{font-size:8.7821px;}
	.st11{font-family:'Helvetica-LightOblique';}
</style>
<rect id="XMLID_28_" x="43" y="88.9" class="st0" width="114.4" height="256.4"/>
<g id="XMLID_43_">
	<rect id="XMLID_36_" x="42.4" y="47.3" class="st1" width="114.4" height="35"/>
	<rect id="XMLID_29_" x="515.1" y="47.3" class="st1" width="114.4" height="35"/>
	<rect id="XMLID_22_" x="396.9" y="47.3" class="st1" width="114.4" height="35"/>
	<rect id="XMLID_15_" x="278.7" y="47.3" class="st1" width="114.4" height="35"/>
	<rect id="XMLID_8_" x="160.5" y="47.3" class="st1" width="114.4" height="35"/>
	<rect id="XMLID_7_" x="633.3" y="47.3" class="st1" width="114.4" height="35"/>
	<text id="XMLID_92_" transform="matrix(1 0 0 1 70.3013 69.1655)" class="st2 st3">MONDAY</text>
	<text id="XMLID_93_" transform="matrix(1 0 0 1 549.6592 69.1655)" class="st2 st3">FRIDAY</text>
	<text id="XMLID_94_" transform="matrix(1 0 0 1 415.375 69.1655)" class="st2 st3">THURSDAY</text>
	<text id="XMLID_95_" transform="matrix(1 0 0 1 292.0635 69.1655)" class="st2 st3">WEDNESDAY</text>
	<text id="XMLID_96_" transform="matrix(1 0 0 1 184.4273 69.166)" class="st2 st3">TUESDAY</text>
	<text id="XMLID_97_" transform="matrix(1 0 0 1 654.835 69.1655)" class="st2 st3">SATURDAY</text>
</g>
<text id="XMLID_2_" transform="matrix(1 0 0 1 43.5149 38.9305)"><tspan x="0" y="0" class="st2 st4">Fall, August 22 - December 17, 2016</tspan><tspan x="204.1" y="0" class="st5 st4">   </tspan><tspan x="214.1" y="0" class="st5 st4 st6">	</tspan><tspan x="216" y="0" class="st5 st4 st7">							</tspan><tspan x="468" y="0" class="st5 st4">    16 weeks, closed week of November 24th</tspan></text>
<g id="XMLID_1_">
	<rect id="XMLID_56_" x="42" y="478" class="st8" width="114.4" height="58"/>
	<text id="XMLID_31_" transform="matrix(1 0 0 1 45.1679 493.9636)" class="st5 st9">Pro</text>
	<text id="XMLID_37_" transform="matrix(1.1324 0 0 1 46.5443 530.3365)" class="st5 st10">7:30 - 9:00 pm </text>
</g>
<g id="XMLID_9_">
	<rect id="XMLID_19_" x="42" y="414.4" class="st8" width="114.4" height="58"/>
	<text id="XMLID_18_" transform="matrix(1 0 0 1 45.1679 430.3274)" class="st5 st9">Fundamentals</text>
	<text id="XMLID_14_" transform="matrix(1.1324 0 0 1 46.5443 466.7004)" class="st5 st10">5:45 - 7:15 pm</text>
</g>
<g id="XMLID_21_">
	<rect id="XMLID_25_" x="633" y="285.7" class="st8" width="114.4" height="58"/>
	<text id="XMLID_24_" transform="matrix(1 0 0 1 636.2471 301.6145)" class="st5 st9">Play/Prep</text>
	<text id="XMLID_23_" transform="matrix(1.1324 0 0 1 637.6235 337.9875)" class="st5 st10">2:15 - 3:45 pm </text>
</g>
<rect id="XMLID_32_" x="160.8" y="88.9" class="st0" width="114.4" height="320.8"/>
<g id="XMLID_20_">
	<rect id="XMLID_30_" x="159.8" y="478" class="st8" width="114.4" height="58"/>
	<text id="XMLID_27_" transform="matrix(1 0 0 1 162.9897 493.9636)" class="st5 st9">New Media</text>
	<text id="XMLID_26_" transform="matrix(1.1324 0 0 1 164.3661 530.3365)" class="st5 st10">7:30 - 9:00 pm </text>
</g>
<g id="XMLID_11_">
	<rect id="XMLID_17_" x="159.8" y="414.4" class="st8" width="114.4" height="58"/>
	<text id="XMLID_13_" transform="matrix(1 0 0 1 162.9897 430.3274)" class="st5 st9">Fundamentals</text>
	<text id="XMLID_12_" transform="matrix(1.1324 0 0 1 164.3661 466.7004)" class="st5 st10">5:45 - 7:15 pm</text>
</g>
<rect id="XMLID_48_" x="279.1" y="88.9" class="st0" width="114.4" height="256.4"/>
<g id="XMLID_44_">
	<rect id="XMLID_47_" x="278.1" y="478" class="st8" width="114.4" height="58"/>
	<text id="XMLID_46_" transform="matrix(1 0 0 1 281.3065 493.9636)" class="st5 st9">Fundamentals</text>
	<text id="XMLID_45_" transform="matrix(1.1324 0 0 1 282.6829 530.3365)" class="st5 st10">7:30 - 9:00 pm </text>
</g>
<g id="XMLID_39_">
	<rect id="XMLID_42_" x="278.1" y="414.4" class="st8" width="114.4" height="58"/>
	<text id="XMLID_41_" transform="matrix(1 0 0 1 281.3065 430.3274)" class="st5 st9">Play/Prep</text>
	<text id="XMLID_40_" transform="matrix(1.1324 0 0 1 282.6829 466.7004)" class="st5 st10">5:45 - 7:15 pm</text>
</g>
<g id="XMLID_33_">
	<rect id="XMLID_38_" x="278.1" y="350" class="st8" width="114.4" height="58"/>
	<text id="XMLID_35_" transform="matrix(1 0 0 1 281.3065 365.9709)" class="st5 st9">Fundamentals</text>
	<text id="XMLID_34_" transform="matrix(1.1324 0 0 1 282.6829 402.3439)" class="st5 st10">4:00 - 5:30 pm </text>
</g>
<rect id="XMLID_62_" x="397.2" y="89.7" class="st0" width="114.4" height="256.4"/>
<rect id="XMLID_5_" x="397.2" y="479" class="st0" width="114.4" height="57.7"/>
<g id="XMLID_53_">
	<rect id="XMLID_57_" x="396.2" y="415.1" class="st8" width="114.4" height="58"/>
	<text id="XMLID_55_" transform="matrix(1 0 0 1 399.3758 431.0699)" class="st5 st9">Go</text>
	<text id="XMLID_54_" transform="matrix(1.1324 0 0 1 400.7522 467.4429)" class="st5 st10">5:45 - 7:15 pm</text>
</g>
<g id="XMLID_49_">
	<rect id="XMLID_52_" x="396.2" y="350.8" class="st8" width="114.4" height="58"/>
	<text id="XMLID_51_" transform="matrix(1 0 0 1 399.3758 366.7135)" class="st5 st9">Fundamentals</text>
	<text id="XMLID_50_" transform="matrix(1.1324 0 0 1 400.7522 403.0865)" class="st5 st10">4:00 - 5:30 pm </text>
</g>
<rect id="XMLID_75_" x="515.3" y="88.9" class="st0" width="114.4" height="320.3"/>
<g id="XMLID_71_">
	<rect id="XMLID_74_" x="514.2" y="478" class="st8" width="114.4" height="58"/>
	<text id="XMLID_73_" transform="matrix(1 0 0 1 517.4451 493.9636)" class="st5 st9">Pro</text>
	<text id="XMLID_72_" transform="matrix(1.1324 0 0 1 518.8215 530.3365)" class="st5 st10">7:30 - 9:00 pm </text>
</g>
<g id="XMLID_67_">
	<rect id="XMLID_70_" x="514.2" y="414.4" class="st8" width="114.4" height="58"/>
	<text id="XMLID_69_" transform="matrix(1 0 0 1 517.4451 430.3274)" class="st5 st9">Linux</text>
	<text id="XMLID_68_" transform="matrix(1.1324 0 0 1 518.8215 466.7004)" class="st5 st10">5:45 - 7:15 pm</text>
</g>
<rect id="XMLID_82_" x="632.6" y="414.4" class="st8" width="114.4" height="122.1"/>
<text id="XMLID_81_" transform="matrix(1 0 0 1 635.762 430.3274)" class="st5 st9">Events</text>
<text id="XMLID_80_" transform="matrix(1.1324 0 0 1 637.1383 531.0568)" class="st5 st10">6:00 - 9:00 pm</text>
<g id="XMLID_16_">
	<rect id="XMLID_78_" x="632.6" y="350" class="st8" width="114.4" height="58"/>
	<text id="XMLID_77_" transform="matrix(1 0 0 1 635.762 365.9709)" class="st5 st9">Fundamentals</text>
	<text id="XMLID_76_" transform="matrix(1.1324 0 0 1 637.1383 402.3439)" class="st5 st10">4:00 - 5:30 pm </text>
</g>
<g id="XMLID_98_">
	<rect id="XMLID_101_" x="632.6" y="220.3" class="st8" width="114.4" height="58"/>
	<text id="XMLID_100_" transform="matrix(1 0 0 1 635.762 236.268)" class="st5 st9">Pro</text>
	<text id="XMLID_99_" transform="matrix(1.1324 0 0 1 637.1383 272.641)" class="st5 st10">12:30 - 2:00 pm </text>
</g>
<g id="XMLID_102_">
	<rect id="XMLID_105_" x="632.6" y="155.5" class="st8" width="114.4" height="58"/>
	<text id="XMLID_104_" transform="matrix(1 0 0 1 635.762 171.4165)" class="st5 st9">Game</text>
	<text id="XMLID_103_" transform="matrix(1.1324 0 0 1 637.1383 207.7895)" class="st5 st10">10:45 am - 12:15 pm </text>
</g>
<g id="XMLID_106_">
	<rect id="XMLID_109_" x="632.6" y="90.1" class="st8" width="114.4" height="58"/>
	<text id="XMLID_108_" transform="matrix(1 0 0 1 635.762 106.07)" class="st5 st9">Yoga</text>
	<text id="XMLID_107_" transform="matrix(1.1324 0 0 1 637.1383 142.4429)" class="st5 st10">9:00 - 10:30 am</text>
</g>
<text id="XMLID_79_" transform="matrix(1 0 0 1 559.2872 551.9998)" class="st11 st4">Updated: 1:03 pm, Sept 5, 2016</text>
<g id="XMLID_58_">
	<rect id="XMLID_61_" x="42.5" y="350" class="st8" width="114.4" height="58"/>
	<text id="XMLID_60_" transform="matrix(1 0 0 1 45.6629 365.9709)" class="st5 st9">Play/Prep</text>
	<text id="XMLID_59_" transform="matrix(1.1324 0 0 1 47.0393 402.3439)" class="st5 st10">4:00 - 5:30 pm </text>
</g>
</svg>
